# xmcd
#
# Track frame offsets: 
#        150
#        16157
#        34411
#        52014
#        71591
#        89831
#        113578
#        127245
#        145562
#        166954
#        186869
#        200996
#        219563
#
# Disc length: 3245 seconds
#
# Revision: 0
# Processed by: cddbd v1.5.2PL0 Copyright (c) Steve Scherf et al.
# Submitted via: ExactAudioCopy v0.99pb5
#
DISCID=c80cab0d
DTITLE=JUS REGULAR NIGGERS - SLUM BROTHERS
DYEAR=1900
DGENRE=Hip-Hop
TTITLE0=1. Sure Shot
TTITLE1=2. Be A Niiga Too
TTITLE2=3. It Gets Done
TTITLE3=4. The Question Mark Jam
TTITLE4=5. Stop Frontin
TTITLE5=6. Me And My Niggaz
TTITLE6=7. 6 Million Mc's
TTITLE7=8. Regular Niggaz (Remix)
TTITLE8=9. The Hot Shyt
TTITLE9=10. Hollyhood G's
TTITLE10=11. World Primerz
TTITLE11=12. If Ya Dont Kno
TTITLE12=13. Don Q's Chillio
EXTD=
EXTT0=
EXTT1=
EXTT2=
EXTT3=
EXTT4=
EXTT5=
EXTT6=
EXTT7=
EXTT8=
EXTT9=
EXTT10=
EXTT11=
EXTT12=
PLAYORDER=
